<?xml version="1.0" standalone="no"?><!DOCTYPE svg PUBLIC "-//W3C//DTD SVG 1.1//EN" "http://www.w3.org/Graphics/SVG/1.1/DTD/svg11.dtd"><svg t="1705996705810" class="icon" viewBox="0 0 1024 1024" version="1.1" xmlns="http://www.w3.org/2000/svg" p-id="5130" xmlns:xlink="http://www.w3.org/1999/xlink" width="200" height="200"><path d="M526.279111 117.646222l4.209778 2.958222 398.222222 341.333334a28.444444 28.444444 0 0 1-32.824889 46.193778l-4.152889-2.958223-9.955555-8.533333v328.248889a85.333333 85.333333 0 0 1-77.141334 84.935111L796.444444 910.222222H227.555556a85.333333 85.333333 0 0 1-84.935112-77.141333L142.222222 824.888889V496.583111l-9.955555 8.533333a28.444444 28.444444 0 0 1-36.408889 0.568889l-3.697778-3.640889a28.444444 28.444444 0 0 1-0.455111-36.408888l3.584-3.697778 398.222222-341.333334a28.444444 28.444444 0 0 1 32.768-2.958222zM512 179.655111L198.883556 448l0.227555 2.275556V824.888889a28.444444 28.444444 0 0 0 23.324445 27.989333L227.555556 853.333333h151.665777a15.815111 15.815111 0 0 0 15.303111-11.719111l0.568889-4.096v-176.924444a72.704 72.704 0 0 1 64.455111-72.248889l8.192-0.512h88.519112a72.704 72.704 0 0 1 72.248888 64.512l0.455112 8.192v176.981333a15.815111 15.815111 0 0 0 11.662222 15.246222l4.096 0.568889H796.444444a28.444444 28.444444 0 0 0 27.989334-23.324444l0.455111-5.12V450.275556l0.170667-2.275556L512 179.655111z m44.259556 465.066667H467.740444a15.815111 15.815111 0 0 0-15.246222 11.719111l-0.568889 4.096v176.981333c0 5.404444-0.568889 10.695111-1.706666 15.872h123.562666a72.647111 72.647111 0 0 1-1.251555-7.68l-0.455111-8.192v-176.924444a15.815111 15.815111 0 0 0-11.719111-15.36l-4.096-0.512z" fill="#245798" p-id="5131"></path></svg>